<svg xmlns="http://www.w3.org/2000/svg" viewBox="0 0 512 512">
  <g>
    <path d="M162.982 342.302c7.328-16.395 15.355-32.476 23.798-48.351l-97.092-72.814C51.861 288.892 19.517 362.587 0 438.363zM314.887 339.629A761.125 761.125 0 0 0 256 236.768a761.293 761.293 0 0 0-58.887 102.861 858.816 858.816 0 0 0 117.774 0zM241 371.312c-20.874-.357-41.871-1.339-62.783-3.177L15.366 464.119C88.233 481.836 166.161 489.982 241 491.092zM271 206.033a789.416 789.416 0 0 1 39.613 61.386l96.275-72.206C369.036 132.41 323.98 73.888 271.674 21.582l-.674-.674zM333.783 368.135c-20.912 1.838-41.909 2.82-62.783 3.177v119.78c74.839-1.11 152.767-9.255 225.636-26.973zM201.387 267.421A789.453 789.453 0 0 1 241 206.033V20.908l-.674.674c-52.306 52.306-97.365 110.83-135.216 173.635zM325.219 293.951c8.443 15.875 16.47 31.956 23.798 48.351L512 438.363c-19.517-75.776-51.865-149.475-89.691-217.229z"
      fill="#ffffff"/>
  </g>
</svg>
