<svg xmlns="http://www.w3.org/2000/svg" viewBox="0 0 479.999 479.999">
  <g fill="#ffffff">
    <path d="M418.983 452.529c-.273 4.253-3.993 7.471-8.255 7.471H229.32a4 4 0 0 1-4-4v-8a4 4 0 0 1 4-4H411a7.999 7.999 0 0 1 7.983 8.529z"/>
    <path d="M404 405.996V420a8 8 0 0 1-8 8H229.32a4 4 0 0 1-4-4c0-3.191.362-5.939-2.34-8.66-5.139-5.103-13.66-1.34-13.66 5.967v38.239c0 13.862-12.512 23.118-25.2 19.764L168 474.98l-15.66 4.2c-13.52 3.636-25.66-6.207-25.66-19.12v-38.788c0-4.262-3.218-7.982-7.471-8.255A7.999 7.999 0 0 0 110.68 421v3a4 4 0 0 1-4 4h-2.244c-8.067 0-15.018-6.185-15.417-14.242-.427-8.613 6.459-15.756 14.981-15.758 218.007-.04 275.476.089 291.952-.003a8 8 0 0 1 8.048 7.999z"/>
    <path d="M106.68 444H104c-17.405 0-31.511-14.427-30.986-31.947.434-14.467 11.011-26.23 24.662-29.275 3.681-.821 6.324-4.045 6.324-7.816V8.824c0-5.128-4.744-8.869-9.762-7.809C72.965 5.509 57 24.39 57 47v366c0 25.957 21.043 47 47 47h2.68a4 4 0 0 0 4-4v-8a4 4 0 0 0-4-4zM295.368 187.569l-13.304 9.666c-2.198 1.597-2.198 4.875 0 6.472l19.036 13.83c2.655 1.93 4.995.643 5.878 0 .884-.642 2.829-2.472 1.816-5.59l-7.271-22.379c-.839-2.583-3.957-3.596-6.155-1.999zM280.019 132.333H247.98a4 4 0 0 0-3.804 2.764l-9.902 30.473a3.999 3.999 0 0 0 1.453 4.472l25.922 18.833a3.998 3.998 0 0 0 4.702 0l25.922-18.833a4 4 0 0 0 1.453-4.472l-9.902-30.473a4 4 0 0 0-3.805-2.764zM301.45 137.569l5.082 15.64c.84 2.584 3.957 3.597 6.155 2l19.036-13.831c2.652-1.927 2.153-4.551 1.816-5.59-.338-1.039-1.477-3.455-4.756-3.455h-23.53c-2.716 0-4.643 2.651-3.803 5.236zM219.205 211.948c-1.013 3.118.933 4.948 1.816 5.59.884.643 3.224 1.93 5.878 0l19.036-13.83c2.198-1.597 2.199-4.875 0-6.472l-13.304-9.666c-2.198-1.597-5.316-.585-6.155 2zM226.549 137.569c.84-2.584-1.087-5.236-3.804-5.236h-23.53c-3.279 0-4.418 2.417-4.756 3.455-.337 1.039-.836 3.663 1.816 5.59l19.036 13.831c2.198 1.597 5.316.585 6.155-2z"/>
    <path d="M399 0H128a8 8 0 0 0-8 8v366a8 8 0 0 0 8 8h271c13.255 0 24-10.745 24-24V24c0-13.255-10.745-24-24-24zM287.064 325H174a8 8 0 0 1 0-16h113.064a8 8 0 0 1 0 16zM354 325h-19.581a8 8 0 0 1 0-16H354a8 8 0 0 1 0 16zm-90-48c-65.617 0-119-53.383-119-119S198.382 39 264 39s119 53.383 119 119-53.383 119-119 119z"/>
    <path d="M268.755 88.718c-1.014-3.118-3.663-3.455-4.755-3.455s-3.741.337-4.755 3.455l-7.271 22.378c-.84 2.584 1.087 5.236 3.804 5.236h16.444c2.717 0 4.644-2.652 3.804-5.236z"/>
    <path d="M264 55c-56.794 0-103 46.206-103 103s46.206 103 103 103 103-46.206 103-103S320.794 55 264 55zm77.129 99.322-27.696 20.123 10.579 32.559c6.288 19.352-15.861 35.432-32.315 23.479L264 210.359l-27.696 20.123c-16.443 11.948-38.607-4.116-32.315-23.479l10.579-32.559-27.696-20.123c-16.446-11.947-8.016-37.99 12.344-37.99h34.234l10.579-32.559c6.282-19.333 33.652-19.363 39.943 0l10.579 32.559h34.234c20.327.002 28.816 26.025 12.344 37.991z"/>
  </g>
</svg>
