<svg xmlns="http://www.w3.org/2000/svg" version="1.1" x="0" y="0" viewBox="0 0 512 512" style="enable-background:new 0 0 512 512" xml:space="preserve">
  <g>
    <path d="M412.838 0H99.162L0 99.162v313.677L99.162 512h313.677L512 412.838V99.162zM311.25 183.065l42.826-38.561a52.742 52.742 0 0 0 17.424-39.135c0-8.34-6.785-15.125-15.125-15.125s-15.125 6.785-15.125 15.125v15h-30v-15c0-24.882 20.243-45.125 45.125-45.125S401.5 80.486 401.5 105.368c0 23.389-9.969 45.78-27.35 61.43l-15.487 13.945H401.5v30h-90.25zM110.5 60.243h60.125v150.5h-30v-120.5H110.5zm90.25 346.382c0 24.882-20.243 45.125-45.125 45.125S110.5 431.507 110.5 406.625v-15h30v15c0 8.34 6.785 15.125 15.125 15.125s15.125-6.785 15.125-15.125-6.785-15.125-15.125-15.125h-15v-30h15c8.34 0 15.125-6.785 15.125-15.125s-6.785-15.125-15.125-15.125-15.125 6.785-15.125 15.125v15h-30v-15c0-24.882 20.243-45.125 45.125-45.125s45.125 20.243 45.125 45.125c0 11.568-4.38 22.13-11.563 30.125 7.183 7.995 11.563 18.557 11.563 30.125zm200.75 15v30.125h-30v-30.125h-60.25v-23.784l36.505-94.974 28.002 10.763-29.979 77.995H371.5V355.5h30zM451.75 271H271v180.75h-30V271H60.25v-30H241V60.25h30V241h180.75z" fill="#ffffff"/>
  </g>
</svg>
