<svg xmlns="http://www.w3.org/2000/svg" viewBox="0 0 512 512">
  <g>
    <path d="M436.307 75.693c-23.394-23.408-50.669-41.792-81.05-54.639l-11.689 27.627c26.807 11.338 50.874 27.554 71.528 48.223 20.67 20.654 36.885 44.721 48.223 71.528l27.627-11.689c-12.847-30.381-31.23-57.656-54.639-81.05zM156.742 21.053c-30.381 12.847-57.656 31.23-81.05 54.639-23.408 23.394-41.792 50.669-54.639 81.05l27.627 11.689c11.339-26.806 27.554-50.873 48.223-71.528 20.654-20.669 44.722-36.885 71.528-48.223l-11.689-27.627zM96.904 415.096c-20.67-20.654-36.885-44.721-48.223-71.528l-27.627 11.689c12.847 30.381 31.23 57.656 54.639 81.05 23.394 23.408 50.669 41.792 81.05 54.639l11.689-27.627c-26.807-11.338-50.874-27.554-71.528-48.223zM463.32 343.569c-11.339 26.806-27.554 50.873-48.223 71.528-20.654 20.669-44.722 36.885-71.528 48.223l11.689 27.627c30.381-12.847 57.656-31.23 81.05-54.639 23.408-23.394 41.792-50.669 54.639-81.05l-27.627-11.689zM324.306 187.694 256 0l-68.306 187.694L0 256l187.694 68.306L256 512l68.306-187.694L512 256l-187.694-68.306zM256 301c-24.814 0-45-20.186-45-45s20.186-45 45-45 45 20.186 45 45-20.186 45-45 45z" fill="#ffffff"/>
    <path d="m102.938 102.938 26.177 75.215 35.376-13.662 13.662-35.376zM164.491 347.509l-35.376-13.662-26.177 75.215 75.215-26.179zM382.885 333.847l-35.376 13.662-13.662 35.374 75.215 26.179zM333.847 129.115l13.662 35.376 35.376 13.662 26.177-75.215z" fill="#ffffff"/>
  </g>
</svg>
